<!--?xml version="1.0" standalone="no"?-->

<svg version="1.0" xmlns="http://www.w3.org/2000/svg" width="300.000000pt" height="300.000000pt" viewBox="0 0 300.000000 300.000000" preserveAspectRatio="xMidYMid meet">
<g transform="translate(0.000000,300.000000) scale(0.100000,-0.100000)" fill="#090909" stroke="none">
<path d="M985 2790 c-62 -16 -102 -40 -142 -82 -59 -65 -78 -123 -78 -243 l0
-100 429 -3 c303 -1 433 -6 443 -14 10 -8 13 -37 11 -117 l-3 -106 -429 -3
c-303 -1 -433 -6 -443 -14 -10 -8 -13 -36 -11 -112 l3 -101 429 -3 c303 -1
433 -6 443 -14 10 -8 13 -37 11 -117 l-3 -106 -437 -3 -438 -2 -5 -23 c-3 -12
-5 -62 -3 -112 l3 -90 440 -5 440 -5 3 -95 c2 -52 0 -105 -3 -117 l-5 -23
-435 0 -435 0 -6 -25 c-3 -13 -4 -82 -2 -152 4 -151 20 -195 93 -266 65 -64
137 -87 269 -87 56 0 108 -5 116 -10 12 -8 16 -48 20 -222 l5 -213 235 0 235
0 5 213 c4 174 8 214 20 222 8 5 60 10 116 10 132 0 204 23 269 87 73 71 89
115 93 266 2 70 1 139 -2 152 l-6 25 -154 0 c-127 0 -157 3 -170 16 -21 20
-23 198 -3 211 6 4 84 10 172 13 l160 5 3 90 c5 146 19 135 -168 135 -147 0
-160 1 -170 19 -15 29 -13 198 3 208 6 4 84 10 172 13 l160 5 3 99 c2 64 -1
103 -9 112 -9 11 -45 14 -163 14 -105 0 -156 4 -164 12 -17 17 -16 204 1 215
6 4 84 10 172 13 l160 5 0 100 c0 74 -5 113 -19 149 -24 63 -85 130 -145 159
-46 22 -51 22 -551 24 -278 1 -518 -2 -535 -7z" id="node1" class="node"></path>
</g>
<g transform="translate(0.000000,300.000000) scale(0.100000,-0.100000)" fill="#A0A0A0" stroke="none">

</g>
</svg>